<mxfile host="app.diagrams.net" modified="2023-10-13T05:18:42.983Z" agent="Mozilla/5.0 (Macintosh; Intel Mac OS X 10_15_7) AppleWebKit/537.36 (KHTML, like Gecko) Chrome/117.0.0.0 Safari/537.36" version="22.0.4" etag="k_6obUjZNz0u8237m03E" type="device">
  <diagram name="Page-1" id="58cdce13-f638-feb5-8d6f-7d28b1aa9fa0">
    <mxGraphModel dx="2329" dy="751" grid="1" gridSize="10" guides="1" tooltips="1" connect="1" arrows="1" fold="1" page="1" pageScale="1" pageWidth="1100" pageHeight="850" background="none" math="0" shadow="0">
      <root>
        <mxCell id="0" />
        <mxCell id="1" parent="0" />
        <mxCell id="382b91b5511bd0f7-1" value="" style="ellipse;html=1;shape=startState;fillColor=#000000;strokeColor=#ff0000;rounded=1;shadow=0;comic=0;labelBackgroundColor=none;fontFamily=Verdana;fontSize=12;fontColor=#000000;align=center;direction=south;" parent="1" vertex="1">
          <mxGeometry x="95" y="45" width="30" height="30" as="geometry" />
        </mxCell>
        <mxCell id="382b91b5511bd0f7-5" value="User views book summary" style="rounded=1;whiteSpace=wrap;html=1;arcSize=24;fillColor=#ffffc0;strokeColor=#ff0000;shadow=0;comic=0;labelBackgroundColor=none;fontFamily=Verdana;fontSize=12;fontColor=#000000;align=center;" parent="1" vertex="1">
          <mxGeometry x="170" y="340" width="120" height="60" as="geometry" />
        </mxCell>
        <mxCell id="382b91b5511bd0f7-6" value="User is not affiliated with library" style="rounded=1;whiteSpace=wrap;html=1;arcSize=24;fillColor=#ffffc0;strokeColor=#ff0000;shadow=0;comic=0;labelBackgroundColor=none;fontFamily=Verdana;fontSize=12;fontColor=#000000;align=center;" parent="1" vertex="1">
          <mxGeometry x="240" y="30" width="120" height="60" as="geometry" />
        </mxCell>
        <mxCell id="382b91b5511bd0f7-7" value="User has an account, is not logged in" style="rounded=1;whiteSpace=wrap;html=1;arcSize=24;fillColor=#ffffc0;strokeColor=#ff0000;shadow=0;comic=0;labelBackgroundColor=none;fontFamily=Verdana;fontSize=12;fontColor=#000000;align=center;" parent="1" vertex="1">
          <mxGeometry x="780" y="30" width="120" height="60" as="geometry" />
        </mxCell>
        <mxCell id="382b91b5511bd0f7-9" value="User is logged in, is on menu" style="rounded=1;whiteSpace=wrap;html=1;arcSize=24;fillColor=#ffffc0;strokeColor=#ff0000;shadow=0;comic=0;labelBackgroundColor=none;fontFamily=Verdana;fontSize=12;fontColor=#000000;align=center;" parent="1" vertex="1">
          <mxGeometry x="490" y="130" width="120" height="60" as="geometry" />
        </mxCell>
        <mxCell id="382b91b5511bd0f7-10" value="User looks through book selection." style="rounded=1;whiteSpace=wrap;html=1;arcSize=24;fillColor=#ffffc0;strokeColor=#ff0000;shadow=0;comic=0;labelBackgroundColor=none;fontFamily=Verdana;fontSize=12;fontColor=#000000;align=center;" parent="1" vertex="1">
          <mxGeometry x="170" y="200" width="120" height="60" as="geometry" />
        </mxCell>
        <mxCell id="2a3bc250acf0617d-8" value="User&lt;br&gt;" style="shape=umlFrame;whiteSpace=wrap;html=1;rounded=1;shadow=0;comic=0;labelBackgroundColor=none;strokeWidth=1;fontFamily=Verdana;fontSize=12;align=center;" parent="1" vertex="1">
          <mxGeometry x="-80" y="20" width="1010" height="745" as="geometry" />
        </mxCell>
        <mxCell id="2a3bc250acf0617d-9" style="edgeStyle=orthogonalEdgeStyle;html=1;labelBackgroundColor=none;endArrow=open;endSize=8;strokeColor=#ff0000;fontFamily=Verdana;fontSize=12;align=left;" parent="1" source="382b91b5511bd0f7-1" target="382b91b5511bd0f7-6" edge="1">
          <mxGeometry relative="1" as="geometry" />
        </mxCell>
        <mxCell id="v6T9B9crTIINXQAwdAq4-2" style="edgeStyle=orthogonalEdgeStyle;html=1;exitX=1;exitY=0.5;entryX=0;entryY=0.5;labelBackgroundColor=none;endArrow=open;endSize=8;strokeColor=#ff0000;fontFamily=Verdana;fontSize=12;align=left;entryDx=0;entryDy=0;exitDx=0;exitDy=0;" parent="1" source="382b91b5511bd0f7-6" target="382b91b5511bd0f7-7" edge="1">
          <mxGeometry relative="1" as="geometry">
            <mxPoint x="280" y="320" as="sourcePoint" />
            <mxPoint x="280" y="190" as="targetPoint" />
          </mxGeometry>
        </mxCell>
        <mxCell id="v6T9B9crTIINXQAwdAq4-3" value="User Creates Account" style="edgeLabel;html=1;align=center;verticalAlign=middle;resizable=0;points=[];" parent="v6T9B9crTIINXQAwdAq4-2" vertex="1" connectable="0">
          <mxGeometry x="-0.24" y="-1" relative="1" as="geometry">
            <mxPoint as="offset" />
          </mxGeometry>
        </mxCell>
        <mxCell id="v6T9B9crTIINXQAwdAq4-6" style="edgeStyle=orthogonalEdgeStyle;html=1;exitX=0.25;exitY=0;entryX=0.25;entryY=1;labelBackgroundColor=none;endArrow=open;endSize=8;strokeColor=#ff0000;fontFamily=Verdana;fontSize=12;align=left;exitDx=0;exitDy=0;entryDx=0;entryDy=0;" parent="1" source="382b91b5511bd0f7-9" target="382b91b5511bd0f7-7" edge="1">
          <mxGeometry relative="1" as="geometry">
            <mxPoint x="250" y="180" as="sourcePoint" />
            <mxPoint x="410" y="180" as="targetPoint" />
            <Array as="points">
              <mxPoint x="520" y="100" />
              <mxPoint x="810" y="100" />
            </Array>
          </mxGeometry>
        </mxCell>
        <mxCell id="v6T9B9crTIINXQAwdAq4-7" value="User logs out" style="edgeLabel;html=1;align=center;verticalAlign=middle;resizable=0;points=[];" parent="v6T9B9crTIINXQAwdAq4-6" vertex="1" connectable="0">
          <mxGeometry x="-0.1" relative="1" as="geometry">
            <mxPoint as="offset" />
          </mxGeometry>
        </mxCell>
        <mxCell id="v6T9B9crTIINXQAwdAq4-8" style="edgeStyle=elbowEdgeStyle;html=1;labelBackgroundColor=none;endArrow=open;endSize=8;strokeColor=#ff0000;fontFamily=Verdana;fontSize=12;align=left;entryX=0.5;entryY=0;entryDx=0;entryDy=0;exitX=-0.025;exitY=0.383;exitDx=0;exitDy=0;exitPerimeter=0;" parent="1" source="382b91b5511bd0f7-9" target="382b91b5511bd0f7-10" edge="1">
          <mxGeometry relative="1" as="geometry">
            <mxPoint x="330" y="260" as="sourcePoint" />
            <mxPoint x="330" y="135" as="targetPoint" />
            <Array as="points">
              <mxPoint x="230" y="160" />
            </Array>
          </mxGeometry>
        </mxCell>
        <mxCell id="v6T9B9crTIINXQAwdAq4-9" value="User searches/sorts/browses books." style="edgeLabel;html=1;align=center;verticalAlign=middle;resizable=0;points=[];" parent="v6T9B9crTIINXQAwdAq4-8" vertex="1" connectable="0">
          <mxGeometry x="0.3536" y="-2" relative="1" as="geometry">
            <mxPoint x="72" y="-1" as="offset" />
          </mxGeometry>
        </mxCell>
        <mxCell id="v6T9B9crTIINXQAwdAq4-10" style="edgeStyle=elbowEdgeStyle;html=1;labelBackgroundColor=none;endArrow=open;endSize=8;strokeColor=#ff0000;fontFamily=Verdana;fontSize=12;align=left;" parent="1" edge="1">
          <mxGeometry relative="1" as="geometry">
            <mxPoint x="180" y="260" as="sourcePoint" />
            <mxPoint x="180" y="340" as="targetPoint" />
            <Array as="points">
              <mxPoint x="180" y="310" />
            </Array>
          </mxGeometry>
        </mxCell>
        <mxCell id="v6T9B9crTIINXQAwdAq4-11" value="User selects a book" style="edgeLabel;html=1;align=center;verticalAlign=middle;resizable=0;points=[];" parent="v6T9B9crTIINXQAwdAq4-10" vertex="1" connectable="0">
          <mxGeometry x="-0.275" y="-4" relative="1" as="geometry">
            <mxPoint as="offset" />
          </mxGeometry>
        </mxCell>
        <mxCell id="v6T9B9crTIINXQAwdAq4-15" style="edgeStyle=orthogonalEdgeStyle;html=1;exitX=0.808;exitY=-0.067;entryX=1;entryY=0.5;labelBackgroundColor=none;endArrow=open;endSize=8;strokeColor=#ff0000;fontFamily=Verdana;fontSize=12;align=left;exitDx=0;exitDy=0;entryDx=0;entryDy=0;exitPerimeter=0;" parent="1" source="382b91b5511bd0f7-5" target="382b91b5511bd0f7-10" edge="1">
          <mxGeometry relative="1" as="geometry">
            <mxPoint x="400" y="393.5" as="sourcePoint" />
            <mxPoint x="690" y="353.5" as="targetPoint" />
            <Array as="points">
              <mxPoint x="267" y="290" />
              <mxPoint x="270" y="290" />
              <mxPoint x="270" y="262" />
              <mxPoint x="290" y="262" />
            </Array>
          </mxGeometry>
        </mxCell>
        <mxCell id="v6T9B9crTIINXQAwdAq4-16" value="User unselects book/ &lt;br&gt;seaches for similar books" style="edgeLabel;html=1;align=center;verticalAlign=middle;resizable=0;points=[];" parent="v6T9B9crTIINXQAwdAq4-15" vertex="1" connectable="0">
          <mxGeometry x="-0.1" relative="1" as="geometry">
            <mxPoint y="29" as="offset" />
          </mxGeometry>
        </mxCell>
        <mxCell id="v6T9B9crTIINXQAwdAq4-18" style="edgeStyle=elbowEdgeStyle;html=1;labelBackgroundColor=none;endArrow=open;endSize=8;strokeColor=#ff0000;fontFamily=Verdana;fontSize=12;align=left;exitX=0.125;exitY=1.033;exitDx=0;exitDy=0;exitPerimeter=0;entryX=0.083;entryY=-0.017;entryDx=0;entryDy=0;entryPerimeter=0;" parent="1" source="382b91b5511bd0f7-5" target="v6T9B9crTIINXQAwdAq4-26" edge="1">
          <mxGeometry relative="1" as="geometry">
            <mxPoint x="233" y="400" as="sourcePoint" />
            <mxPoint x="180" y="580" as="targetPoint" />
            <Array as="points">
              <mxPoint x="180" y="590" />
            </Array>
          </mxGeometry>
        </mxCell>
        <mxCell id="v6T9B9crTIINXQAwdAq4-19" value="User attempts to check out unavailable book" style="edgeLabel;html=1;align=center;verticalAlign=middle;resizable=0;points=[];" parent="v6T9B9crTIINXQAwdAq4-18" vertex="1" connectable="0">
          <mxGeometry x="0.3536" y="-2" relative="1" as="geometry">
            <mxPoint x="-38" y="-1" as="offset" />
          </mxGeometry>
        </mxCell>
        <mxCell id="v6T9B9crTIINXQAwdAq4-20" value="User is kept on waitlist" style="rounded=1;whiteSpace=wrap;html=1;arcSize=24;fillColor=#ffffc0;strokeColor=#ff0000;shadow=0;comic=0;labelBackgroundColor=none;fontFamily=Verdana;fontSize=12;fontColor=#000000;align=center;" parent="1" vertex="1">
          <mxGeometry x="220" y="460" width="120" height="60" as="geometry" />
        </mxCell>
        <mxCell id="v6T9B9crTIINXQAwdAq4-21" style="edgeStyle=elbowEdgeStyle;html=1;labelBackgroundColor=none;endArrow=open;endSize=8;strokeColor=#ff0000;fontFamily=Verdana;fontSize=12;align=left;exitX=0.642;exitY=1.033;exitDx=0;exitDy=0;exitPerimeter=0;entryX=0.25;entryY=0;entryDx=0;entryDy=0;" parent="1" source="382b91b5511bd0f7-5" target="v6T9B9crTIINXQAwdAq4-20" edge="1">
          <mxGeometry relative="1" as="geometry">
            <mxPoint x="440" y="412.5" as="sourcePoint" />
            <mxPoint x="440" y="692.5" as="targetPoint" />
            <Array as="points">
              <mxPoint x="250" y="440" />
            </Array>
          </mxGeometry>
        </mxCell>
        <mxCell id="v6T9B9crTIINXQAwdAq4-22" value="User attempts to check out book" style="edgeLabel;html=1;align=center;verticalAlign=middle;resizable=0;points=[];" parent="v6T9B9crTIINXQAwdAq4-21" vertex="1" connectable="0">
          <mxGeometry x="0.3536" y="-2" relative="1" as="geometry">
            <mxPoint y="-1" as="offset" />
          </mxGeometry>
        </mxCell>
        <mxCell id="v6T9B9crTIINXQAwdAq4-23" style="edgeStyle=elbowEdgeStyle;html=1;labelBackgroundColor=none;endArrow=open;endSize=8;strokeColor=#ff0000;fontFamily=Verdana;fontSize=12;align=left;exitX=0.5;exitY=1;exitDx=0;exitDy=0;entryX=0.917;entryY=-0.05;entryDx=0;entryDy=0;entryPerimeter=0;" parent="1" source="v6T9B9crTIINXQAwdAq4-20" target="v6T9B9crTIINXQAwdAq4-26" edge="1">
          <mxGeometry relative="1" as="geometry">
            <mxPoint x="500" y="450" as="sourcePoint" />
            <mxPoint x="280" y="660" as="targetPoint" />
            <Array as="points">
              <mxPoint x="280" y="580" />
            </Array>
          </mxGeometry>
        </mxCell>
        <mxCell id="v6T9B9crTIINXQAwdAq4-24" value="Book is available, user is notified&lt;br&gt;&amp;nbsp;and attempts to check out" style="edgeLabel;html=1;align=center;verticalAlign=middle;resizable=0;points=[];" parent="v6T9B9crTIINXQAwdAq4-23" vertex="1" connectable="0">
          <mxGeometry x="0.3536" y="-2" relative="1" as="geometry">
            <mxPoint x="2" y="-1" as="offset" />
          </mxGeometry>
        </mxCell>
        <mxCell id="v6T9B9crTIINXQAwdAq4-26" value="User checks book out" style="rounded=1;whiteSpace=wrap;html=1;arcSize=24;fillColor=#ffffc0;strokeColor=#ff0000;shadow=0;comic=0;labelBackgroundColor=none;fontFamily=Verdana;fontSize=12;fontColor=#000000;align=center;" parent="1" vertex="1">
          <mxGeometry x="170" y="610" width="120" height="60" as="geometry" />
        </mxCell>
        <mxCell id="v6T9B9crTIINXQAwdAq4-29" style="edgeStyle=elbowEdgeStyle;html=1;labelBackgroundColor=none;endArrow=open;endSize=8;strokeColor=#ff0000;fontFamily=Verdana;fontSize=12;align=left;exitX=0;exitY=0.5;exitDx=0;exitDy=0;entryX=0;entryY=0.5;entryDx=0;entryDy=0;" parent="1" source="v6T9B9crTIINXQAwdAq4-26" target="382b91b5511bd0f7-10" edge="1">
          <mxGeometry relative="1" as="geometry">
            <mxPoint x="395" y="660" as="sourcePoint" />
            <mxPoint x="390" y="867" as="targetPoint" />
            <Array as="points">
              <mxPoint x="20" y="420" />
            </Array>
          </mxGeometry>
        </mxCell>
        <mxCell id="v6T9B9crTIINXQAwdAq4-30" value="User finishes checking book out and&lt;br&gt;&amp;nbsp;is returned to list of books" style="edgeLabel;html=1;align=center;verticalAlign=middle;resizable=0;points=[];" parent="v6T9B9crTIINXQAwdAq4-29" vertex="1" connectable="0">
          <mxGeometry x="0.3536" y="-2" relative="1" as="geometry">
            <mxPoint x="-2" y="31" as="offset" />
          </mxGeometry>
        </mxCell>
        <mxCell id="v6T9B9crTIINXQAwdAq4-32" style="edgeStyle=elbowEdgeStyle;html=1;labelBackgroundColor=none;endArrow=open;endSize=8;strokeColor=#ff0000;fontFamily=Verdana;fontSize=12;align=left;entryX=1.017;entryY=0.383;entryDx=0;entryDy=0;exitX=0;exitY=1;exitDx=0;exitDy=0;entryPerimeter=0;" parent="1" source="382b91b5511bd0f7-9" target="v6T9B9crTIINXQAwdAq4-20" edge="1">
          <mxGeometry relative="1" as="geometry">
            <mxPoint x="567" y="240" as="sourcePoint" />
            <mxPoint x="310" y="287" as="targetPoint" />
            <Array as="points">
              <mxPoint x="350" y="280" />
            </Array>
          </mxGeometry>
        </mxCell>
        <mxCell id="v6T9B9crTIINXQAwdAq4-34" value="User checks personal waitlist" style="edgeLabel;html=1;align=center;verticalAlign=middle;resizable=0;points=[];" parent="v6T9B9crTIINXQAwdAq4-32" vertex="1" connectable="0">
          <mxGeometry x="-0.0021" y="-3" relative="1" as="geometry">
            <mxPoint x="8" y="140" as="offset" />
          </mxGeometry>
        </mxCell>
        <mxCell id="Aq9vum9XDmTj-wK88U7--1" value="User looks through borrowed selection" style="rounded=1;whiteSpace=wrap;html=1;arcSize=24;fillColor=#ffffc0;strokeColor=#ff0000;shadow=0;comic=0;labelBackgroundColor=none;fontFamily=Verdana;fontSize=12;fontColor=#000000;align=center;" parent="1" vertex="1">
          <mxGeometry x="490" y="260" width="120" height="60" as="geometry" />
        </mxCell>
        <mxCell id="Aq9vum9XDmTj-wK88U7--2" style="edgeStyle=orthogonalEdgeStyle;html=1;exitX=0.25;exitY=1;labelBackgroundColor=none;endArrow=open;endSize=8;strokeColor=#ff0000;fontFamily=Verdana;fontSize=12;align=left;exitDx=0;exitDy=0;" parent="1" edge="1">
          <mxGeometry relative="1" as="geometry">
            <mxPoint x="500" y="190" as="sourcePoint" />
            <mxPoint x="500" y="260" as="targetPoint" />
            <Array as="points">
              <mxPoint x="500" y="260" />
            </Array>
          </mxGeometry>
        </mxCell>
        <mxCell id="Aq9vum9XDmTj-wK88U7--3" value="User accesses borrowed books" style="edgeLabel;html=1;align=center;verticalAlign=middle;resizable=0;points=[];" parent="Aq9vum9XDmTj-wK88U7--2" connectable="0" vertex="1">
          <mxGeometry x="-0.24" y="-1" relative="1" as="geometry">
            <mxPoint x="-39" y="13" as="offset" />
          </mxGeometry>
        </mxCell>
        <mxCell id="Aq9vum9XDmTj-wK88U7--4" style="edgeStyle=orthogonalEdgeStyle;html=1;labelBackgroundColor=none;endArrow=open;endSize=8;strokeColor=#ff0000;fontFamily=Verdana;fontSize=12;align=left;entryX=0.833;entryY=1.033;entryDx=0;entryDy=0;entryPerimeter=0;" parent="1" target="382b91b5511bd0f7-9" edge="1">
          <mxGeometry relative="1" as="geometry">
            <mxPoint x="590" y="260" as="sourcePoint" />
            <mxPoint x="510" y="270" as="targetPoint" />
            <Array as="points">
              <mxPoint x="590" y="260" />
            </Array>
          </mxGeometry>
        </mxCell>
        <mxCell id="Aq9vum9XDmTj-wK88U7--5" value="User exits borrowed books" style="edgeLabel;html=1;align=center;verticalAlign=middle;resizable=0;points=[];" parent="Aq9vum9XDmTj-wK88U7--4" connectable="0" vertex="1">
          <mxGeometry x="-0.24" y="-1" relative="1" as="geometry">
            <mxPoint x="-11" y="-24" as="offset" />
          </mxGeometry>
        </mxCell>
        <mxCell id="Aq9vum9XDmTj-wK88U7--6" value="User is reading book" style="rounded=1;whiteSpace=wrap;html=1;arcSize=24;fillColor=#ffffc0;strokeColor=#ff0000;shadow=0;comic=0;labelBackgroundColor=none;fontFamily=Verdana;fontSize=12;fontColor=#000000;align=center;" parent="1" vertex="1">
          <mxGeometry x="490" y="390" width="120" height="60" as="geometry" />
        </mxCell>
        <mxCell id="Aq9vum9XDmTj-wK88U7--7" style="edgeStyle=orthogonalEdgeStyle;html=1;labelBackgroundColor=none;endArrow=open;endSize=8;strokeColor=#ff0000;fontFamily=Verdana;fontSize=12;align=left;entryX=0.175;entryY=-0.05;entryDx=0;entryDy=0;entryPerimeter=0;" parent="1" target="Aq9vum9XDmTj-wK88U7--6" edge="1">
          <mxGeometry relative="1" as="geometry">
            <mxPoint x="511" y="320" as="sourcePoint" />
            <mxPoint x="510" y="270" as="targetPoint" />
            <Array as="points">
              <mxPoint x="511" y="350" />
              <mxPoint x="510" y="350" />
            </Array>
          </mxGeometry>
        </mxCell>
        <mxCell id="Aq9vum9XDmTj-wK88U7--8" value="User selects book to read" style="edgeLabel;html=1;align=center;verticalAlign=middle;resizable=0;points=[];" parent="Aq9vum9XDmTj-wK88U7--7" connectable="0" vertex="1">
          <mxGeometry x="-0.24" y="-1" relative="1" as="geometry">
            <mxPoint x="-20" y="4" as="offset" />
          </mxGeometry>
        </mxCell>
        <mxCell id="Aq9vum9XDmTj-wK88U7--9" style="edgeStyle=orthogonalEdgeStyle;html=1;labelBackgroundColor=none;endArrow=open;endSize=8;strokeColor=#ff0000;fontFamily=Verdana;fontSize=12;align=left;entryX=0.833;entryY=1;entryDx=0;entryDy=0;entryPerimeter=0;exitX=0.808;exitY=-0.05;exitDx=0;exitDy=0;exitPerimeter=0;" parent="1" source="Aq9vum9XDmTj-wK88U7--6" target="Aq9vum9XDmTj-wK88U7--1" edge="1">
          <mxGeometry relative="1" as="geometry">
            <mxPoint x="521" y="330" as="sourcePoint" />
            <mxPoint x="521" y="397" as="targetPoint" />
            <Array as="points">
              <mxPoint x="590" y="387" />
            </Array>
          </mxGeometry>
        </mxCell>
        <mxCell id="Aq9vum9XDmTj-wK88U7--10" value="User exits reading&lt;br&gt;&amp;nbsp;interface" style="edgeLabel;html=1;align=center;verticalAlign=middle;resizable=0;points=[];" parent="Aq9vum9XDmTj-wK88U7--9" connectable="0" vertex="1">
          <mxGeometry x="-0.24" y="-1" relative="1" as="geometry">
            <mxPoint x="-1" y="7" as="offset" />
          </mxGeometry>
        </mxCell>
        <mxCell id="4FrOO8bWWVx8hYoW1FHn-3" style="edgeStyle=elbowEdgeStyle;html=1;labelBackgroundColor=none;endArrow=open;endSize=8;strokeColor=#ff0000;fontFamily=Verdana;fontSize=12;align=left;exitX=0.667;exitY=1;exitDx=0;exitDy=0;exitPerimeter=0;entryX=1;entryY=0.5;entryDx=0;entryDy=0;" edge="1" parent="1" source="382b91b5511bd0f7-7" target="382b91b5511bd0f7-9">
          <mxGeometry relative="1" as="geometry">
            <mxPoint x="890" y="160" as="sourcePoint" />
            <mxPoint x="870" y="260" as="targetPoint" />
            <Array as="points">
              <mxPoint x="860" y="180" />
            </Array>
          </mxGeometry>
        </mxCell>
        <mxCell id="4FrOO8bWWVx8hYoW1FHn-4" value="User Logs In" style="edgeLabel;html=1;align=center;verticalAlign=middle;resizable=0;points=[];" vertex="1" connectable="0" parent="4FrOO8bWWVx8hYoW1FHn-3">
          <mxGeometry x="-0.275" y="-4" relative="1" as="geometry">
            <mxPoint x="-64" y="4" as="offset" />
          </mxGeometry>
        </mxCell>
      </root>
    </mxGraphModel>
  </diagram>
</mxfile>
